<?xml version="1.0" encoding="UTF-8" standalone="no"?><svg xmlns="http://www.w3.org/2000/svg" xmlns:xlink="http://www.w3.org/1999/xlink" contentScriptType="application/ecmascript" contentStyleType="text/css" height="489.5833px" preserveAspectRatio="none" style="width:308px;height:489px;background:#00000000;" version="1.1" viewBox="0 0 308 489" width="308.3333px" zoomAndPan="magnify"><defs/><g><path d="M35.4167,18.6849 L35.4167,22.8516 L52.0833,22.8516 L52.0833,20.7682 L41.6667,20.7682 L41.6667,18.6849 L35.4167,18.6849 M35.4167,24.9349 L35.4167,34.3099 C35.4167,34.8932 35.875,35.3516 36.4583,35.3516 L51.0417,35.3516 C51.625,35.3516 52.0833,34.8932 52.0833,34.3099 L52.0833,24.9349 L35.4167,24.9349 " fill="#000000" style="stroke:;stroke-width:0.0;stroke-dasharray:;"/><text fill="#000000" font-family="sans-serif" font-size="25" lengthAdjust="spacing" textLength="43.75" x="62.5" y="35.7056">org</text><path d="M56.25,47.7865 L56.25,51.9531 L72.9167,51.9531 L72.9167,49.8698 L62.5,49.8698 L62.5,47.7865 L56.25,47.7865 M56.25,54.0365 L56.25,63.4115 C56.25,63.9948 56.7083,64.4531 57.2917,64.4531 L71.875,64.4531 C72.4583,64.4531 72.9167,63.9948 72.9167,63.4115 L72.9167,54.0365 L56.25,54.0365 " fill="#000000" style="stroke:;stroke-width:0.0;stroke-dasharray:;"/><text fill="#000000" font-family="sans-serif" font-size="25" lengthAdjust="spacing" textLength="116.6667" x="83.3333" y="64.8071">.archives</text><path d="M56.25,76.888 L56.25,81.0547 L72.9167,81.0547 L72.9167,78.9714 L62.5,78.9714 L62.5,76.888 L56.25,76.888 M56.25,83.138 L56.25,92.513 C56.25,93.0964 56.7083,93.5547 57.2917,93.5547 L71.875,93.5547 C72.4583,93.5547 72.9167,93.0964 72.9167,92.513 L72.9167,83.138 L56.25,83.138 " fill="#000000" style="stroke:;stroke-width:0.0;stroke-dasharray:;"/><text fill="#000000" font-family="sans-serif" font-size="25" lengthAdjust="spacing" textLength="93.75" x="83.3333" y="93.9087">.attach</text><path d="M56.25,105.9896 L56.25,110.1563 L72.9167,110.1563 L72.9167,108.0729 L62.5,108.0729 L62.5,105.9896 L56.25,105.9896 M56.25,112.2396 L56.25,121.6146 C56.25,122.1979 56.7083,122.6563 57.2917,122.6563 L71.875,122.6563 C72.4583,122.6563 72.9167,122.1979 72.9167,121.6146 L72.9167,112.2396 L56.25,112.2396 " fill="#000000" style="stroke:;stroke-width:0.0;stroke-dasharray:;"/><text fill="#000000" font-family="sans-serif" font-size="25" lengthAdjust="spacing" textLength="100" x="83.3333" y="123.0103">agenda</text><path d="M77.0833,135.0911 L77.0833,139.2578 L93.75,139.2578 L93.75,137.1745 L83.3333,137.1745 L83.3333,135.0911 L77.0833,135.0911 M77.0833,141.3411 L77.0833,150.7161 C77.0833,151.2995 77.5417,151.7578 78.125,151.7578 L92.7083,151.7578 C93.2917,151.7578 93.75,151.2995 93.75,150.7161 L93.75,141.3411 L77.0833,141.3411 " fill="#000000" style="stroke:;stroke-width:0.0;stroke-dasharray:;"/><text fill="#000000" font-family="sans-serif" font-size="25" lengthAdjust="spacing" textLength="129.1667" x="104.1667" y="152.1118">calendars</text><path d="M97.9167,164.1927 L97.9167,180.8594 L112.5,180.8594 L112.5,172.526 L104.1667,172.526 L104.1667,164.1927 L97.9167,164.1927 M106.25,164.1927 L106.25,170.4427 L112.5,170.4427 L106.25,164.1927 " fill="#000000" style="stroke:;stroke-width:0.0;stroke-dasharray:;"/><text fill="#000000" font-family="sans-serif" font-size="25" lengthAdjust="spacing" textLength="166.6667" x="125" y="181.2134">personal.org</text><path d="M97.9167,193.2943 L97.9167,209.9609 L112.5,209.9609 L112.5,201.6276 L104.1667,201.6276 L104.1667,193.2943 L97.9167,193.2943 M106.25,193.2943 L106.25,199.5443 L112.5,199.5443 L106.25,193.2943 " fill="#000000" style="stroke:;stroke-width:0.0;stroke-dasharray:;"/><text fill="#000000" font-family="sans-serif" font-size="25" lengthAdjust="spacing" textLength="112.5" x="125" y="210.3149">work.org</text><path d="M77.0833,222.3958 L77.0833,226.5625 L93.75,226.5625 L93.75,224.4792 L83.3333,224.4792 L83.3333,222.3958 L77.0833,222.3958 M77.0833,228.6458 L77.0833,238.0208 C77.0833,238.6042 77.5417,239.0625 78.125,239.0625 L92.7083,239.0625 C93.2917,239.0625 93.75,238.6042 93.75,238.0208 L93.75,228.6458 L77.0833,228.6458 " fill="#000000" style="stroke:;stroke-width:0.0;stroke-dasharray:;"/><text fill="#000000" font-family="sans-serif" font-size="25" lengthAdjust="spacing" textLength="70.8333" x="104.1667" y="239.4165">tasks</text><path d="M97.9167,251.4974 L97.9167,268.1641 L112.5,268.1641 L112.5,259.8307 L104.1667,259.8307 L104.1667,251.4974 L97.9167,251.4974 M106.25,251.4974 L106.25,257.7474 L112.5,257.7474 L106.25,251.4974 " fill="#000000" style="stroke:;stroke-width:0.0;stroke-dasharray:;"/><text fill="#000000" font-family="sans-serif" font-size="25" lengthAdjust="spacing" textLength="168.75" x="125" y="268.5181">someday.org</text><path d="M97.9167,280.599 L97.9167,297.2656 L112.5,297.2656 L112.5,288.9323 L104.1667,288.9323 L104.1667,280.599 L97.9167,280.599 M106.25,280.599 L106.25,286.849 L112.5,286.849 L106.25,280.599 " fill="#000000" style="stroke:;stroke-width:0.0;stroke-dasharray:;"/><text fill="#000000" font-family="sans-serif" font-size="25" lengthAdjust="spacing" textLength="112.5" x="125" y="297.6196">todo.org</text><path d="M77.0833,309.7005 L77.0833,326.3672 L91.6667,326.3672 L91.6667,318.0339 L83.3333,318.0339 L83.3333,309.7005 L77.0833,309.7005 M85.4167,309.7005 L85.4167,315.9505 L91.6667,315.9505 L85.4167,309.7005 " fill="#000000" style="stroke:;stroke-width:0.0;stroke-dasharray:;"/><text fill="#000000" font-family="sans-serif" font-size="25" lengthAdjust="spacing" textLength="166.6667" x="104.1667" y="326.7212">contacts.org</text><path d="M77.0833,338.8021 L77.0833,355.4688 L91.6667,355.4688 L91.6667,347.1354 L83.3333,347.1354 L83.3333,338.8021 L77.0833,338.8021 M85.4167,338.8021 L85.4167,345.0521 L91.6667,345.0521 L85.4167,338.8021 " fill="#000000" style="stroke:;stroke-width:0.0;stroke-dasharray:;"/><text fill="#000000" font-family="sans-serif" font-size="25" lengthAdjust="spacing" textLength="133.3333" x="104.1667" y="355.8228">habits.org</text><path d="M56.25,367.9036 L56.25,372.0703 L72.9167,372.0703 L72.9167,369.987 L62.5,369.987 L62.5,367.9036 L56.25,367.9036 M56.25,374.1536 L56.25,383.5286 C56.25,384.112 56.7083,384.5703 57.2917,384.5703 L71.875,384.5703 C72.4583,384.5703 72.9167,384.112 72.9167,383.5286 L72.9167,374.1536 L56.25,374.1536 " fill="#000000" style="stroke:;stroke-width:0.0;stroke-dasharray:;"/><text fill="#000000" font-family="sans-serif" font-size="25" lengthAdjust="spacing" textLength="145.8333" x="83.3333" y="384.9243">documents</text><path d="M56.25,397.0052 L56.25,401.1719 L72.9167,401.1719 L72.9167,399.0885 L62.5,399.0885 L62.5,397.0052 L56.25,397.0052 M56.25,403.2552 L56.25,412.6302 C56.25,413.2135 56.7083,413.6719 57.2917,413.6719 L71.875,413.6719 C72.4583,413.6719 72.9167,413.2135 72.9167,412.6302 L72.9167,403.2552 L56.25,403.2552 " fill="#000000" style="stroke:;stroke-width:0.0;stroke-dasharray:;"/><text fill="#000000" font-family="sans-serif" font-size="25" lengthAdjust="spacing" textLength="89.5833" x="83.3333" y="414.0259">journal</text><path d="M56.25,426.1068 L56.25,430.2734 L72.9167,430.2734 L72.9167,428.1901 L62.5,428.1901 L62.5,426.1068 L56.25,426.1068 M56.25,432.3568 L56.25,441.7318 C56.25,442.3151 56.7083,442.7734 57.2917,442.7734 L71.875,442.7734 C72.4583,442.7734 72.9167,442.3151 72.9167,441.7318 L72.9167,432.3568 L56.25,432.3568 " fill="#000000" style="stroke:;stroke-width:0.0;stroke-dasharray:;"/><text fill="#000000" font-family="sans-serif" font-size="25" lengthAdjust="spacing" textLength="75" x="83.3333" y="443.1274">notes</text><path d="M56.25,455.2083 L56.25,459.375 L72.9167,459.375 L72.9167,457.2917 L62.5,457.2917 L62.5,455.2083 L56.25,455.2083 M56.25,461.4583 L56.25,470.8333 C56.25,471.4167 56.7083,471.875 57.2917,471.875 L71.875,471.875 C72.4583,471.875 72.9167,471.4167 72.9167,470.8333 L72.9167,461.4583 L56.25,461.4583 " fill="#000000" style="stroke:;stroke-width:0.0;stroke-dasharray:;"/><text fill="#000000" font-family="sans-serif" font-size="25" lengthAdjust="spacing" textLength="183.3333" x="83.3333" y="472.229">presentations</text><rect fill="none" height="4.1667" style="stroke:#888888;stroke-width:2.0833333333333335;" width="4.1667" x="18.75" y="24.9674"/><line style="stroke:#888888;stroke-width:2.0833333333333335;" x1="20.8333" x2="20.8333" y1="31.2174" y2="56.1523"/><line style="stroke:#888888;stroke-width:2.0833333333333335;" x1="20.8333" x2="37.5" y1="56.1523" y2="56.1523"/><line style="stroke:#888888;stroke-width:2.0833333333333335;" x1="20.8333" x2="20.8333" y1="31.2174" y2="85.2539"/><line style="stroke:#888888;stroke-width:2.0833333333333335;" x1="20.8333" x2="37.5" y1="85.2539" y2="85.2539"/><rect fill="none" height="4.1667" style="stroke:#888888;stroke-width:2.0833333333333335;" width="4.1667" x="39.5833" y="112.2721"/><line style="stroke:#888888;stroke-width:2.0833333333333335;" x1="20.8333" x2="20.8333" y1="31.2174" y2="114.3555"/><line style="stroke:#888888;stroke-width:2.0833333333333335;" x1="20.8333" x2="37.5" y1="114.3555" y2="114.3555"/><rect fill="none" height="4.1667" style="stroke:#888888;stroke-width:2.0833333333333335;" width="4.1667" x="60.4167" y="141.3737"/><line style="stroke:#888888;stroke-width:2.0833333333333335;" x1="41.6667" x2="41.6667" y1="118.5221" y2="143.457"/><line style="stroke:#888888;stroke-width:2.0833333333333335;" x1="41.6667" x2="58.3333" y1="143.457" y2="143.457"/><line style="stroke:#888888;stroke-width:2.0833333333333335;" x1="62.5" x2="62.5" y1="147.6237" y2="172.5586"/><line style="stroke:#888888;stroke-width:2.0833333333333335;" x1="62.5" x2="79.1667" y1="172.5586" y2="172.5586"/><line style="stroke:#888888;stroke-width:2.0833333333333335;" x1="62.5" x2="62.5" y1="147.6237" y2="201.6602"/><line style="stroke:#888888;stroke-width:2.0833333333333335;" x1="62.5" x2="79.1667" y1="201.6602" y2="201.6602"/><rect fill="none" height="4.1667" style="stroke:#888888;stroke-width:2.0833333333333335;" width="4.1667" x="60.4167" y="228.6784"/><line style="stroke:#888888;stroke-width:2.0833333333333335;" x1="41.6667" x2="41.6667" y1="118.5221" y2="230.7617"/><line style="stroke:#888888;stroke-width:2.0833333333333335;" x1="41.6667" x2="58.3333" y1="230.7617" y2="230.7617"/><line style="stroke:#888888;stroke-width:2.0833333333333335;" x1="62.5" x2="62.5" y1="234.9284" y2="259.8633"/><line style="stroke:#888888;stroke-width:2.0833333333333335;" x1="62.5" x2="79.1667" y1="259.8633" y2="259.8633"/><line style="stroke:#888888;stroke-width:2.0833333333333335;" x1="62.5" x2="62.5" y1="234.9284" y2="288.9648"/><line style="stroke:#888888;stroke-width:2.0833333333333335;" x1="62.5" x2="79.1667" y1="288.9648" y2="288.9648"/><line style="stroke:#888888;stroke-width:2.0833333333333335;" x1="41.6667" x2="41.6667" y1="118.5221" y2="318.0664"/><line style="stroke:#888888;stroke-width:2.0833333333333335;" x1="41.6667" x2="58.3333" y1="318.0664" y2="318.0664"/><line style="stroke:#888888;stroke-width:2.0833333333333335;" x1="41.6667" x2="41.6667" y1="118.5221" y2="347.168"/><line style="stroke:#888888;stroke-width:2.0833333333333335;" x1="41.6667" x2="58.3333" y1="347.168" y2="347.168"/><line style="stroke:#888888;stroke-width:2.0833333333333335;" x1="20.8333" x2="20.8333" y1="31.2174" y2="376.2695"/><line style="stroke:#888888;stroke-width:2.0833333333333335;" x1="20.8333" x2="37.5" y1="376.2695" y2="376.2695"/><line style="stroke:#888888;stroke-width:2.0833333333333335;" x1="20.8333" x2="20.8333" y1="31.2174" y2="405.3711"/><line style="stroke:#888888;stroke-width:2.0833333333333335;" x1="20.8333" x2="37.5" y1="405.3711" y2="405.3711"/><line style="stroke:#888888;stroke-width:2.0833333333333335;" x1="20.8333" x2="20.8333" y1="31.2174" y2="434.4727"/><line style="stroke:#888888;stroke-width:2.0833333333333335;" x1="20.8333" x2="37.5" y1="434.4727" y2="434.4727"/><line style="stroke:#888888;stroke-width:2.0833333333333335;" x1="20.8333" x2="20.8333" y1="31.2174" y2="463.5742"/><line style="stroke:#888888;stroke-width:2.0833333333333335;" x1="20.8333" x2="37.5" y1="463.5742" y2="463.5742"/><!--MD5=[08b601f861ff6a5a20d76880bb5cfb97]
@startsalt
!theme cerulean-outline
scale 2
{
  {T
    + <&folder> org
    ++ <&folder> .archives
    ++ <&folder> .attach
    ++ <&folder> agenda
    +++ <&folder> calendars
    ++++ <&file> personal.org
    ++++ <&file> work.org
    +++ <&folder> tasks
    ++++ <&file> someday.org
    ++++ <&file> todo.org
    +++ <&file> contacts.org
    +++ <&file> habits.org
    ++ <&folder> documents
    ++ <&folder> journal
    ++ <&folder> notes
    ++ <&folder> presentations
  }
}
@endsalt

@startsalt



skinparam backgroundColor transparent
skinparam useBetaStyle false







skinparam defaultFontName       "Verdana"
skinparam defaultFontSize       12
skinparam dpi                   100
skinparam shadowing             false
skinparam roundcorner           8
skinparam ParticipantPadding    40
skinparam BoxPadding            40
skinparam Padding               5
skinparam ArrowColor            #868E96
skinparam stereotype {
    CBackgroundColor #EDF0F2
    CBorderColor #BABDBF
    ABackgroundColor #8FB961
    ABorderColor $SUCCESS_DARK
    IBackgroundColor #D2494E
    IBorderColor $DANGER_DARK
    EBackgroundColor #E47833
    EBorderColor $WARNING_DARK
    NBackgroundColor #35638F
    NBorderColor $INFO_DARK
}
skinparam title {
	FontColor	                 #2FA4E7
	BorderColor	                 #BABDBF
	FontSize	    	         20
	BorderRoundCorner            8
	BorderThickness 	         1
	BackgroundColor              transparent
}

skinparam legend {
	BackgroundColor transparent
	BorderColor #BABDBF
	FontColor #343A40
}

skinparam swimlane {
	BorderColor #033C73
	BorderThickness 2
	TitleBackgroundColor  #EDF0F2-#E9ECEF
	TitleFontColor #2FA4E7
}


skinparam activity {
		FontColor #2FA4E7
	BorderColor #2FA4E7
	BackgroundColor transparent
	BarColor #73A839
	StartColor #033C73
	EndColor #033C73
	DiamondBackgroundColor transparent
  	DiamondBorderColor #BABDBF
	DiamondFontColor #BABDBF
}


skinparam participant {
		FontColor #2FA4E7
	BorderColor #2FA4E7
	BackgroundColor transparent
	ParticipantBorderThickness 2
}


skinparam actor {
		FontColor #2FA4E7
	BorderColor #2FA4E7
	BackgroundColor transparent
}


skinparam arrow {
	Thickness 3
	Color #2FA4E7
	FontColor #343A40
}


skinparam sequence {
	BorderColor #2FA4E7
	TitleFontColor #2FA4E7
	BackgroundColor transparent
	StartColor #2FA4E7
	EndColor #2FA4E7
	BoxBackgroundColor transparent
	BoxBorderColor #868E96
	BoxFontColor #343A40
	LifeLineBorderColor #BABDBF
	LifeLineBorderThickness 2
	LifeLineBackgroundColor transparent
	GroupBorderColor #868E96
	GroupFontColor #343A40
	GroupHeaderFontColor #033C73
	DividerBackgroundColor transparent
    DividerBorderColor #868E96
    DividerBorderThickness 2
    DividerFontColor #343A40
	ReferenceBackgroundColor transparent
	ReferenceBorderColor #868E96
	ReferenceFontColor #343A40
	ReferenceHeaderFontColor #033C73
}


skinparam partition {
	BorderColor #2FA4E7
	FontColor #2FA4E7
	BackgroundColor transparent
}


skinparam collections {
		FontColor #2FA4E7
	BorderColor #2FA4E7
	BackgroundColor transparent
}


skinparam control {
		FontColor #2FA4E7
	BorderColor #2FA4E7
	BackgroundColor transparent
}


skinparam entity {
		FontColor #2FA4E7
	BorderColor #2FA4E7
	BackgroundColor transparent
}


skinparam boundary {
		FontColor #2FA4E7
	BorderColor #2FA4E7
	BackgroundColor transparent
}


skinparam agent {
	BackgroundColor transparent
	BorderColor #999999
	FontColor #333333
}


skinparam note {
	BorderThickness 1
	BackgroundColor transparent
	BorderColor #033C73
	FontColor #033C73
}


skinparam artifact {
	BackgroundColor transparent
	BorderColor #868E96
	FontColor #868E96
}


skinparam component {
		FontColor #2FA4E7
	BorderColor #2FA4E7
	BackgroundColor transparent
}


skinparam interface {
	BackgroundColor  transparent
	BorderColor  #C71C22
	FontColor #343A40
}


skinparam storage {
	BackgroundColor transparent
  	BorderColor #DD5600
	FontColor #DD5600
}


skinparam node {
	BackgroundColor transparent
	BorderColor #343A40
	FontColor #343A40
}


skinparam cloud {
	BackgroundColor #F2FCFE-#eeeeee
	BorderColor #F2FCFE
	FontColor #343A40
}


skinparam database {
		FontColor #2FA4E7
	BorderColor #2FA4E7
	BackgroundColor transparent
}


skinparam class {
		FontColor #2FA4E7
	BorderColor #2FA4E7
	BackgroundColor transparent
	FontColor #F8F9FA
	HeaderBackgroundColor #2FA4E7-#2683B9
	StereotypeFontColor #343A40
	BorderThickness 1
	AttributeFontColor #343A40
	AttributeFontSize 11
}


skinparam object {
		FontColor #2FA4E7
	BorderColor #2FA4E7
	BackgroundColor transparent
	StereotypeFontColor #343A40
	BorderThickness 1
	AttributeFontColor #BABDBF
	AttributeFontSize 11
}


skinparam usecase {
		FontColor #2FA4E7
	BorderColor #2FA4E7
	BackgroundColor transparent
	BorderThickness 2
	StereotypeFontColor #2FA4E7
}


skinparam rectangle {
		FontColor #2FA4E7
	BorderColor #2FA4E7
	BackgroundColor transparent
	BorderThickness 2
	StereotypeFontColor #2FA4E7
}


skinparam package {
	BackgroundColor transparent
  	BorderColor #2FA4E7
	FontColor #2FA4E7
	BorderThickness 2
}


skinparam folder {
	BackgroundColor transparent
  	BorderColor #DD5600
	FontColor #DD5600
	BorderThickness 2
}


skinparam frame {
	BackgroundColor transparent
  	BorderColor #033C73
	FontColor #033C73
	BorderThickness 2
}


skinparam state {
		FontColor #2FA4E7
	BorderColor #2FA4E7
	BackgroundColor transparent
	StartColor #033C73
	EndColor #033C73
	AttributeFontColor #BABDBF
	AttributeFontSize 11
}


skinparam queue {
		FontColor #2FA4E7
	BorderColor #2FA4E7
	BackgroundColor transparent
}


skinparam card {
	BackgroundColor transparent
	BorderColor #033C73
	FontColor #033C73
}


skinparam file {
	BackgroundColor transparent
	BorderColor #868E96
	FontColor #868E96
}


skinparam stack {
		FontColor #2FA4E7
	BorderColor #2FA4E7
	BackgroundColor transparent
}



scale 2
{
  {T
    + <&folder> org
    ++ <&folder> .archives
    ++ <&folder> .attach
    ++ <&folder> agenda
    +++ <&folder> calendars
    ++++ <&file> personal.org
    ++++ <&file> work.org
    +++ <&folder> tasks
    ++++ <&file> someday.org
    ++++ <&file> todo.org
    +++ <&file> contacts.org
    +++ <&file> habits.org
    ++ <&folder> documents
    ++ <&folder> journal
    ++ <&folder> notes
    ++ <&folder> presentations
  }
}
@endsalt

PlantUML version 1.2021.6(Fri May 14 07:09:51 UTC 2021)
(GPL source distribution)
Java Runtime: OpenJDK Runtime Environment
JVM: OpenJDK 64-Bit Server VM
Default Encoding: UTF-8
Language: en
Country: null
--></g></svg>